<svg width="30" height="30" viewBox="0 0 30 30" fill="none" xmlns="http://www.w3.org/2000/svg">
<path d="M13.8125 18.6876L11.5 21.0001C11.0125 21.4876 10.2375 21.4876 9.7375 21.0126C9.6 20.8751 9.4625 20.7501 9.325 20.6126C8.0375 19.3126 6.875 17.9501 5.8375 16.5251C4.8125 15.1001 3.9875 13.6751 3.3875 12.2626C2.8 10.8376 2.5 9.47512 2.5 8.17512C2.5 7.32512 2.65 6.51262 2.95 5.76262C3.25 5.00012 3.725 4.30012 4.3875 3.67512C5.1875 2.88762 6.0625 2.50012 6.9875 2.50012C7.3375 2.50012 7.6875 2.57512 8 2.72512C8.325 2.87512 8.6125 3.10012 8.8375 3.42512L11.7375 7.51262C11.9625 7.82512 12.125 8.11262 12.2375 8.38762C12.35 8.65012 12.4125 8.91262 12.4125 9.15012C12.4125 9.45012 12.325 9.75012 12.15 10.0376C11.9875 10.3251 11.75 10.6251 11.45 10.9251L10.5 11.9126C10.3625 12.0501 10.3 12.2126 10.3 12.4126C10.3 12.5126 10.3125 12.6001 10.3375 12.7001C10.375 12.8001 10.4125 12.8751 10.4375 12.9501C10.6625 13.3626 11.05 13.9001 11.6 14.5501C12.1625 15.2001 12.7625 15.8626 13.4125 16.5251C13.5375 16.6501 13.675 16.7751 13.8 16.9001C14.3 17.3876 14.3125 18.1876 13.8125 18.6876Z" fill="#6E9E76"/>
<path d="M27.4625 22.9124C27.4625 23.2624 27.4 23.6249 27.275 23.9749C27.2375 24.0749 27.2 24.1749 27.15 24.2749C26.9375 24.7249 26.6625 25.1499 26.3 25.5499C25.6875 26.2249 25.0125 26.7124 24.25 27.0249C24.2375 27.0249 24.225 27.0374 24.2125 27.0374C23.475 27.3374 22.675 27.4999 21.8125 27.4999C20.5375 27.4999 19.175 27.1999 17.7375 26.5874C16.3 25.9749 14.8625 25.1499 13.4375 24.1124C12.95 23.7499 12.4625 23.3874 12 22.9999L16.0875 18.9124C16.4375 19.1749 16.75 19.3749 17.0125 19.5124C17.075 19.5374 17.15 19.5749 17.2375 19.6124C17.3375 19.6499 17.4375 19.6624 17.55 19.6624C17.7625 19.6624 17.925 19.5874 18.0625 19.4499L19.0125 18.5124C19.325 18.1999 19.625 17.9624 19.9125 17.8124C20.2 17.6374 20.4875 17.5499 20.8 17.5499C21.0375 17.5499 21.2875 17.5999 21.5625 17.7124C21.8375 17.8249 22.125 17.9874 22.4375 18.1999L26.575 21.1374C26.9 21.3624 27.125 21.6249 27.2625 21.9374C27.3875 22.2499 27.4625 22.5624 27.4625 22.9124Z" fill="#6E9E76"/>
</svg>
